:SAMPLES-PER-SECOND 30
:FULLY-SPECIFIED
:DEGREES
235
root  -22.8973 6.5657 -16.7656 173.777 -1.94948 -167.838
RightUpLeg  -85.3507 -10.5854 10.8138
RightLeg  157.099 9.65408 -4.52647
RightFoot  -51.7657 4.04306 8.92213
RightToes  -7.71113 -0.023332 -0.0725823
Spine  25.3389 -2.07117 3.22006
Spine1  38.0296 -11.3494 12.7889
HEad  -93.5245 1.96413 8.02433
LeftShoulder1  -1.94126e-019 -3.10601e-018 -2.51263e-017
LeftArm  7.70345 -67.956 -99.4854
LeftForeArm  25.9691 -5.71692 -0.991731
LeftHand  -0.479655 -0.116041 10.194
RightShoulder  -4.96962e-017 0 -2.36833e-017
RightArm  20.3869 68.4872 123.003
RightForeArm  34.7947 66.6756 22.0704
RightHand  -0.217952 -2.61403 -8.71697
LeftUpLeg  -91.0617 9.47934 23.4181
LeftLeg  161.932 -0.564216 0.228367
LeftFoot  -50.0683 -3.28372 -6.8626
LeftToes  -12.5359 2.03064e-006 1.83538e-008
236
root  -22.9143 6.61882 -16.6848 173.759 -1.69147 -167.851
RightUpLeg  -85.9127 -10.5502 10.8614
RightLeg  156.822 9.60257 -4.55841
RightFoot  -50.8989 3.76459 8.49932
RightToes  -7.91275 -0.0235256 -0.0727524
Spine  25.012 -2.61944 2.88922
Spine1  37.1677 -13.3476 13.3648
HEad  -93.7426 2.0079 7.92104
LeftShoulder1  -1.94126e-019 -3.10601e-018 -2.51263e-017
LeftArm  4.33499 -67.2505 -95.648
LeftForeArm  26.0878 -5.58694 -0.968314
LeftHand  -0.479798 -0.242501 10.1855
RightShoulder  -4.96962e-017 0 -2.36833e-017
RightArm  20.494 66.5674 122.792
RightForeArm  39.7786 72.0678 30.7091
RightHand  -0.169334 -2.16329 -5.77435
LeftUpLeg  -91.3184 9.34631 23.1078
LeftLeg  161.728 -1.05144 0.427111
LeftFoot  -49.5981 -3.40441 -7.19862
LeftToes  -12.0144 2.03064e-006 1.83538e-008
237
root  -22.9241 6.65731 -16.6239 173.743 -1.41603 -167.814
RightUpLeg  -86.3075 -10.5529 10.9612
RightLeg  156.615 9.45388 -4.52676
RightFoot  -50.3185 3.52941 8.10196
RightToes  -8.03961 -0.0236966 -0.0728137
Spine  24.8334 -2.94207 2.70127
Spine1  36.611 -14.6739 13.8367
HEad  -94.3204 2.06694 7.88635
LeftShoulder1  -1.94126e-019 -3.10601e-018 -2.51263e-017
LeftArm  2.35992 -66.7049 -93.3305
LeftForeArm  26.1776 -5.58425 -0.968507
LeftHand  -0.479188 -0.045096 10.2096
RightShoulder  -4.96962e-017 0 -2.36833e-017
RightArm  20.1564 65.4551 121.923
RightForeArm  47.3659 75.6314 40.7995
RightHand  -0.137713 -0.92866 -3.48724
LeftUpLeg  -91.4082 9.3215 23.0074
LeftLeg  161.588 -1.34075 0.547514
LeftFoot  -49.3084 -3.49435 -7.44293
LeftToes  -11.6609 2.03064e-006 1.83538e-008
238
root  -22.928 6.68047 -16.5876 173.725 -1.2005 -167.792
RightUpLeg  -86.5343 -10.6108 11.031
RightLeg  156.478 9.30031 -4.47747
RightFoot  -49.9746 3.36997 7.81797
RightToes  -8.06222 -0.0238431 -0.0727579
Spine  24.7209 -3.12566 2.58527
Spine1  36.2862 -15.4338 14.0684
HEad  -94.907 2.31869 7.84668
LeftShoulder1  -1.94126e-019 -3.10601e-018 -2.51263e-017
LeftArm  1.21784 -66.362 -91.964
LeftForeArm  26.1249 -5.5208 -0.956995
LeftHand  -0.482226 -0.134158 10.2071
RightShoulder  -4.96962e-017 0 -2.36833e-017
RightArm  19.7609 64.7734 121.137
RightForeArm  55.1242 77.5773 49.9054
RightHand  -0.115288 0.222019 -2.42408
LeftUpLeg  -91.4467 9.34881 22.958
LeftLeg  161.51 -1.54319 0.632121
LeftFoot  -49.161 -3.56466 -7.62189
LeftToes  -11.3133 2.03064e-006 1.83538e-008
239
root  -22.9337 6.69744 -16.5611 173.7 -1.00859 -167.794
RightUpLeg  -86.676 -10.6148 11.0225
RightLeg  156.382 9.13748 -4.41428
RightFoot  -49.6778 3.23464 7.574
RightToes  -8.46726 -0.0239634 -0.0725764
Spine  24.6472 -3.23564 2.48631
Spine1  36.1002 -15.8959 14.149
HEad  -95.4819 2.90074 7.6241
LeftShoulder1  -1.94126e-019 -3.10601e-018 -2.51263e-017
LeftArm  0.379409 -66.1545 -91.0099
LeftForeArm  26.0662 -5.46578 -0.947502
LeftHand  -0.485904 -0.100567 10.1764
RightShoulder  -4.96962e-017 0 -2.36833e-017
RightArm  19.4868 64.321 120.5
RightForeArm  62.5866 78.709 57.7182
RightHand  -0.0972155 0.303701 -2.02734
LeftUpLeg  -91.4271 9.3679 22.8698
LeftLeg  161.458 -1.74469 0.716054
LeftFoot  -49.0664 -3.6313 -7.7843
LeftToes  -10.9613 2.03064e-006 1.83538e-008
240
root  -22.9353 6.70705 -16.5488 173.667 -0.879761 -167.804
RightUpLeg  -86.7707 -10.6647 11.0681
RightLeg  156.336 9.05732 -4.38284
RightFoot  -49.5275 3.16518 7.44707
RightToes  -8.51123 -0.0240555 -0.0722606
Spine  24.5969 -3.29402 2.41487
Spine1  35.988 -16.1495 14.1669
HEad  -95.8784 3.87753 7.02929
LeftShoulder1  -1.94126e-019 -3.10601e-018 -2.51263e-017
LeftArm  -0.0589278 -66.03 -90.5123
LeftForeArm  26.0191 -5.43435 -0.941921
LeftHand  -0.486168 -0.0698164 10.2489
RightShoulder  -4.96962e-017 0 -2.36833e-017
RightArm  19.3836 64.0473 120.058
RightForeArm  68.247 79.2721 62.5125
RightHand  -0.10097 0.661315 -2.01562
LeftUpLeg  -91.3716 9.38014 22.8094
LeftLeg  161.431 -1.88731 0.775309
LeftFoot  -49.011 -3.67856 -7.89772
LeftToes  -10.6952 2.03064e-006 1.83538e-008
241
root  -22.9343 6.71339 -16.5441 173.626 -0.799728 -167.855
RightUpLeg  -86.7919 -10.7061 11.0373
RightLeg  156.314 9.19322 -4.45623
RightFoot  -49.4215 3.20494 7.55073
RightToes  -7.72343 -0.0241177 -0.0718021
Spine  24.5541 -3.33851 2.34143
Spine1  35.9124 -16.3159 14.1256
HEad  -96.3253 5.13915 6.14584
LeftShoulder1  -1.94126e-019 -3.10601e-018 -2.51263e-017
LeftArm  -0.33494 -65.9248 -90.1837
LeftForeArm  26.0157 -5.4416 -0.943208
LeftHand  -0.486522 -0.0478253 10.2824
RightShoulder  -4.96962e-017 0 -2.36833e-017
RightArm  19.5834 63.7586 119.867
RightForeArm  71.6001 79.5423 65.1276
RightHand  -0.100353 0.866686 -1.95783
LeftUpLeg  -91.2904 9.4021 22.7775
LeftLeg  161.409 -1.93479 0.795607
LeftFoot  -48.9953 -3.69252 -7.93115
LeftToes  -10.454 2.03064e-006 1.83538e-008
242
root  -22.9334 6.71921 -16.5314 173.563 -0.742493 -167.919
RightUpLeg  -86.8146 -10.6962 10.9595
RightLeg  156.282 9.16631 -4.449
RightFoot  -49.3498 3.18642 7.52183
RightToes  -7.74186 -0.0241479 -0.0711922
Spine  24.5359 -3.37683 2.26582
Spine1  35.866 -16.4781 14.0947
HEad  -96.9486 6.46201 5.14987
LeftShoulder1  -1.94126e-019 -3.10601e-018 -2.51263e-017
LeftArm  -0.547799 -65.8293 -89.9129
LeftForeArm  25.9654 -5.5494 -0.961881
LeftHand  -0.485819 -0.126441 10.3056
RightShoulder  -4.96962e-017 0 -2.36833e-017
RightArm  20.0668 63.4846 119.668
RightForeArm  75.2434 79.7845 67.2397
RightHand  -0.137677 0.76802 -2.68611
LeftUpLeg  -91.2292 9.37486 22.6986
LeftLeg  161.365 -2.01656 0.83089
LeftFoot  -48.9195 -3.70527 -7.97322
LeftToes  -10.4996 2.03064e-006 1.83538e-008
243
root  -22.9355 6.72817 -16.5274 173.309 -0.757812 -168.183
RightUpLeg  -86.5889 -10.6962 10.6659
RightLeg  156.311 9.17125 -4.44564
RightFoot  -49.3441 3.19992 7.55227
RightToes  -7.83504 -0.0241261 -0.0704226
Spine  24.6255 -3.42274 2.10583
Spine1  36.0512 -16.6274 13.9152
HEad  -97.201 7.55294 4.28999
LeftShoulder1  -1.94126e-019 -3.10601e-018 -2.51263e-017
LeftArm  -0.656623 -65.8588 -89.8022
LeftForeArm  25.9086 -5.62061 -0.974657
LeftHand  -0.481436 -0.0840462 10.2886
RightShoulder  -4.96962e-017 0 -2.36833e-017
RightArm  21.0155 63.3861 119.838
RightForeArm  76.2562 79.8434 67.5912
RightHand  -0.188875 0.553624 -3.76606
LeftUpLeg  -90.9169 9.22465 22.3612
LeftLeg  161.286 -2.16656 0.895921
LeftFoot  -48.9413 -3.73331 -8.03051
LeftToes  -10.4521 2.03064e-006 1.83538e-008
244
root  -22.9383 6.73372 -16.5256 173.06 -0.880798 -168.364
RightUpLeg  -86.3326 -10.8075 10.448
RightLeg  156.348 9.18679 -4.44624
RightFoot  -49.4402 3.2301 7.6026
RightToes  -7.49358 -0.0240369 -0.0694845
Spine  24.7062 -3.47712 1.99038
Spine1  36.227 -16.7221 13.7282
HEad  -97.3045 8.43585 3.66141
LeftShoulder1  -1.94126e-019 -3.10601e-018 -2.51263e-017
LeftArm  -0.531012 -65.8568 -89.7648
LeftForeArm  25.8683 -5.78993 -1.00469
LeftHand  -0.478537 -0.0991691 10.2001
RightShoulder  -4.96962e-017 0 -2.36833e-017
RightArm  21.6255 63.2627 120.075
RightForeArm  75.5088 79.7935 67.0228
RightHand  -0.202115 0.359871 -4.1421
LeftUpLeg  -90.7198 9.00718 22.1141
LeftLeg  161.224 -2.23936 0.928738
LeftFoot  -48.8839 -3.73248 -8.03955
LeftToes  -10.5987 2.03064e-006 1.83538e-008
245
root  -22.9263 6.73316 -16.5132 172.975 -0.990494 -168.39
RightUpLeg  -86.3154 -10.8777 10.4578
RightLeg  156.359 9.23934 -4.4707
RightFoot  -49.441 3.24889 7.64347
RightToes  -7.24476 -0.023886 -0.067229
Spine  24.6932 -3.48526 1.96652
Spine1  36.1804 -16.7725 13.755
HEad  -97.333 8.76518 3.34407
LeftShoulder1  -1.94126e-019 -3.10601e-018 -2.51263e-017
LeftArm  -0.112302 -65.9007 -90.1819
LeftForeArm  26.0271 -5.7639 -0.999941
LeftHand  -0.477369 -0.172997 10.1319
RightShoulder  -4.96962e-017 0 -2.36833e-017
RightArm  21.7333 63.1412 119.802
RightForeArm  76.3909 79.84 67.1079
RightHand  -0.238431 0.559141 -4.73399
LeftUpLeg  -90.7813 8.93054 22.1698
LeftLeg  161.177 -2.14772 0.892944
LeftFoot  -48.7524 -3.68466 -7.95941
LeftToes  -10.5694 2.03064e-006 1.83538e-008
246
root  -22.9319 6.73218 -16.5192 172.612 -1.18431 -168.649
RightUpLeg  -85.899 -11.0753 10.0792
RightLeg  156.439 9.23673 -4.45327
RightFoot  -49.5864 3.28804 7.70488
RightToes  -7.12779 -0.023679 -0.0655948
Spine  24.8373 -3.52743 1.84807
Spine1  36.4683 -16.8358 13.5572
HEad  -97.0549 8.85398 3.16206
LeftShoulder1  -1.94126e-019 -3.10601e-018 -2.51263e-017
LeftArm  0.210825 -66.0152 -90.405
LeftForeArm  26.0735 -5.82694 -1.01119
LeftHand  -0.478918 -0.200718 10.0315
RightShoulder  -4.96962e-017 0 -2.36833e-017
RightArm  22.0548 63.1467 119.738
RightForeArm  77.4749 79.89 66.8779
RightHand  -0.292427 0.870949 -5.53051
LeftUpLeg  -90.4683 8.63848 21.8184
LeftLeg  161.123 -2.21831 0.924608
LeftFoot  -48.7824 -3.69033 -7.96622
LeftToes  -10.4306 2.03064e-006 1.83538e-008
